# xmcd
#
# Track frame offsets:
#  150
#  12200
#  25862
#  38200
#  50060
#  62312
#  72120
#  83362
#  92837
#  102527
#
# Disc length: 1553 seconds
#
# Revision: 0
# Processed by: cddbd v1.5.1PL2 Copyright (c) Steve Scherf et al.
# Submitted via: Collectorz.com_Music_Collector 6.9
#
DISCID=74060f0a
DTITLE=Various Artist - Bluegrass CD 1
DYEAR=2003
DGENRE=Bluegrass - Country
TTITLE0=Lester Flatt - Earl Scruggs - Foggy Mountain Breakdown
TTITLE1=Dick Todd - Big Wheel Cannonball
TTITLE2=Mac Wiseman - Love Letters In The Sand
TTITLE3=Red Foley - Tennessee Saturday Night
TTITLE4=Leon McAuliff - His Cimarron Boys - Orange Blossom
TTITLE5=Grandpa Jones - Mountain Dew
TTITLE6=Bill Monroe - New Mule Skinner Blues
TTITLE7=The Osborne Brothers - The Ballad Of Jed Clampett
TTITLE8=Buck Trent - Banjo Buck
TTITLE9=Smokey River Boys - I Am A Man Of Constant Sorrow
EXTD=
EXTT0=
EXTT1=
EXTT2=
EXTT3=
EXTT4=
EXTT5=
EXTT6=
EXTT7=
EXTT8=
EXTT9=
PLAYORDER=
